# xmcd
#
# Track frame offsets:
#	150
#	13601
#	24896
#	40655
#	55898
#
# Disc length: 901 seconds
#
# Revision: 1
# Processed by: cddbd v1.5.1PL0 Copyright (c) Steve Scherf et al.
# Submitted via: CDex 1.50Beta5
#
DISCID=2e038305
DTITLE=Peppermint Jam - 夏の思い出
DYEAR=1900
DGENRE=Rock
TTITLE0=中国行きの片道列車
TTITLE1=冴えないマイベイビー
TTITLE2=夏の思い出
TTITLE3=Show Window Date
TTITLE4=Hurry Up
EXTD=
EXTT0=
EXTT1=
EXTT2=
EXTT3=
EXTT4=
PLAYORDER=
